<svg width="51" height="51" viewBox="0 0 51 51" fill="none" xmlns="http://www.w3.org/2000/svg">
<path d="M14.1667 14.1663C14.5424 14.1663 14.9027 14.0171 15.1684 13.7514C15.4341 13.4857 15.5833 13.1254 15.5833 12.7497V4.24967C15.5833 3.87395 15.4341 3.51362 15.1684 3.24794C14.9027 2.98226 14.5424 2.83301 14.1667 2.83301C13.7909 2.83301 13.4306 2.98226 13.1649 3.24794C12.8993 3.51362 12.75 3.87395 12.75 4.24967V12.7497C12.75 13.1254 12.8993 13.4857 13.1649 13.7514C13.4306 14.0171 13.7909 14.1663 14.1667 14.1663Z" fill="#050608"/>
<path d="M36.8332 14.1663C37.2089 14.1663 37.5692 14.0171 37.8349 13.7514C38.1006 13.4857 38.2498 13.1254 38.2498 12.7497V4.24967C38.2498 3.87395 38.1006 3.51362 37.8349 3.24794C37.5692 2.98226 37.2089 2.83301 36.8332 2.83301C36.4574 2.83301 36.0971 2.98226 35.8314 3.24794C35.5658 3.51362 35.4165 3.87395 35.4165 4.24967V12.7497C35.4165 13.1254 35.5658 13.4857 35.8314 13.7514C36.0971 14.0171 36.4574 14.1663 36.8332 14.1663Z" fill="#050608"/>
<path d="M45.6875 8.49992H40.0209V12.7499C40.0209 13.5765 39.6925 14.3692 39.108 14.9537C38.5235 15.5382 37.7308 15.8666 36.9042 15.8666C36.0776 15.8666 35.2849 15.5382 34.7004 14.9537C34.1159 14.3692 33.7875 13.5765 33.7875 12.7499V8.49992H17.2834V12.7499C17.2834 13.5765 16.955 14.3692 16.3705 14.9537C15.786 15.5382 14.9933 15.8666 14.1667 15.8666C13.3401 15.8666 12.5474 15.5382 11.9629 14.9537C11.3784 14.3692 11.05 13.5765 11.05 12.7499V8.49992H5.38337C5.04624 8.49608 4.71176 8.55989 4.39972 8.68757C4.08767 8.81526 3.8044 9.00422 3.56666 9.24328C3.32891 9.48235 3.14153 9.76666 3.01557 10.0794C2.88962 10.3922 2.82767 10.727 2.83337 11.0641V42.7691C2.82774 43.1003 2.88741 43.4293 3.00896 43.7374C3.13051 44.0455 3.31157 44.3266 3.54179 44.5647C3.77201 44.8028 4.04689 44.9933 4.35072 45.1251C4.65454 45.257 4.98137 45.3277 5.31254 45.3333H45.6875C46.0187 45.3277 46.3455 45.257 46.6494 45.1251C46.9532 44.9933 47.2281 44.8028 47.4583 44.5647C47.6885 44.3266 47.8696 44.0455 47.9911 43.7374C48.1127 43.4293 48.1723 43.1003 48.1667 42.7691V11.0641C48.1723 10.7329 48.1127 10.4039 47.9911 10.0958C47.8696 9.7877 47.6885 9.50656 47.4583 9.26845C47.2281 9.03033 46.9532 8.8399 46.6494 8.70804C46.3455 8.57617 46.0187 8.50545 45.6875 8.49992ZM36.7484 23.4883L23.0492 37.1874L15.5834 29.6649C15.2526 29.3011 15.0734 28.8247 15.0826 28.3331C15.0917 27.8415 15.2884 27.372 15.6324 27.0207C15.9765 26.6694 16.4418 26.463 16.933 26.4436C17.4243 26.4243 17.9044 26.5935 18.275 26.9166L23.0634 31.7049L34 20.7683C34.1796 20.5887 34.3927 20.4463 34.6273 20.3492C34.8618 20.252 35.1132 20.202 35.3671 20.202C35.621 20.202 35.8724 20.252 36.107 20.3492C36.3415 20.4463 36.5547 20.5887 36.7342 20.7683C36.9137 20.9478 37.0561 21.1609 37.1533 21.3955C37.2505 21.63 37.3005 21.8814 37.3005 22.1353C37.3005 22.3892 37.2505 22.6406 37.1533 22.8752C37.0561 23.1098 36.9137 23.3229 36.7342 23.5024L36.7484 23.4883Z" fill="#050608"/>
</svg>
