<svg width="44" height="44" viewBox="0 0 44 44" fill="none" xmlns="http://www.w3.org/2000/svg">
<path d="M21.0834 36.6666L29.9934 18.8283H23.8334V7.33329L14.6667 25.1716H21.0834V36.6666ZM22.0001 3.66663C27.0417 3.66663 31.3501 5.49996 34.9251 9.07496C38.5001 12.65 40.3334 16.9583 40.3334 22C40.3334 27.0416 38.5001 31.35 34.9251 34.925C31.3501 38.5 27.0417 40.3333 22.0001 40.3333C16.9584 40.3333 12.6501 38.5 9.07508 34.925C5.50008 31.35 3.66675 27.0416 3.66675 22C3.66675 16.9583 5.50008 12.65 9.07508 9.07496C12.6501 5.49996 16.9584 3.66663 22.0001 3.66663Z" fill="#050608"/>
</svg>
