<svg width="54" height="51" viewBox="0 0 54 51" fill="none" xmlns="http://www.w3.org/2000/svg">
<path d="M25.2094 4.9875L14.2781 17.1375C13.8469 17.6156 13.8656 18.3563 14.325 18.8156C17.1844 21.675 21.825 21.675 24.6844 18.8156L27.6656 15.8344C28.0594 15.4406 28.5563 15.225 29.0625 15.1875C29.7 15.1313 30.3563 15.3469 30.8438 15.8344L47.4 32.25L54 27V0L43.5 6L41.2688 4.50937C39.7883 3.5247 38.0499 2.99957 36.2719 3H29.6719C29.5688 3 29.4563 3 29.3531 3.00937C27.7688 3.09375 26.2781 3.80625 25.2094 4.9875ZM10.9313 14.1281L20.9438 3H17.2313C14.8406 3 12.5531 3.94687 10.8656 5.63437L0 18V51L13.5 38.25L14.6625 39.2156C16.8188 41.0156 19.5375 42 22.3406 42H23.8125L23.1563 41.3438C22.275 40.4625 22.275 39.0375 23.1563 38.1656C24.0375 37.2938 25.4625 37.2844 26.3344 38.1656L30.1781 42.0094H31.0219C32.8125 42.0094 34.5656 41.6062 36.1594 40.8562L33.6563 38.3438C32.775 37.4625 32.775 36.0375 33.6563 35.1656C34.5375 34.2938 35.9625 34.2844 36.8344 35.1656L39.8344 38.1656L41.475 36.525C42.3094 35.6906 42.5531 34.4813 42.1875 33.4219L29.2594 20.5969L27.8625 21.9938C23.2406 26.6156 15.7594 26.6156 11.1375 21.9938C8.98125 19.8375 8.89688 16.3781 10.9313 14.1188V14.1281Z" fill="#FEFFFF"/>
</svg>
