<svg width="60" height="60" viewBox="0 0 60 60" fill="none" xmlns="http://www.w3.org/2000/svg">
<path fill-rule="evenodd" clip-rule="evenodd" d="M30 5C43.8072 5 55 16.1928 55 30C55 43.807 43.8072 55 30 55C16.1929 55 5 43.8071 5 30C5 16.1928 16.1929 5 30 5ZM32.5054 27.5H27.5055V42.5H32.5054V27.5ZM30.0254 16.875C28.2027 16.875 26.8804 18.1898 26.8804 19.9653C26.8804 21.8127 28.1679 23.125 30.0254 23.125C31.8107 23.125 33.1305 21.8125 33.1305 20C33.1305 18.1899 31.8107 16.875 30.0254 16.875Z" fill="#FEFFFF"/>
</svg>
