<svg width="51" height="51" viewBox="0 0 51 51" fill="none" xmlns="http://www.w3.org/2000/svg">
<rect width="51" height="51" rx="4" fill="#050608"/>
<path d="M27.2111 33.8743H28.812V38.25H27.2111V33.8743Z" fill="#FEFFFF"/>
<path d="M24.0094 33.8743H25.6103V38.25H24.0094V33.8743Z" fill="#FEFFFF"/>
<path d="M31.8003 10.9286H21.0211C20.5791 10.9286 20.2207 11.287 20.2207 11.729V38.25H22.4086V33.0739C22.4086 32.6318 22.7669 32.2735 23.209 32.2735H29.6124C30.0545 32.2735 30.4129 32.6318 30.4129 33.0739V38.25H32.6007V11.729C32.6007 11.287 32.2423 10.9286 31.8003 10.9286ZM24.0094 29.8722C24.0094 30.3142 23.651 30.6726 23.209 30.6726C22.7669 30.6726 22.4086 30.3142 22.4086 29.8722V28.2713C22.4086 27.8292 22.7669 27.4709 23.209 27.4709C23.651 27.4709 24.0094 27.8292 24.0094 28.2713V29.8722ZM24.0094 25.0696C24.0094 25.5116 23.651 25.87 23.209 25.87C22.7669 25.87 22.4086 25.5116 22.4086 25.0696V23.4687C22.4086 23.0266 22.7669 22.6683 23.209 22.6683C23.651 22.6683 24.0094 23.0266 24.0094 23.4687V25.0696ZM27.2111 29.8722C27.2111 30.3142 26.8528 30.6726 26.4107 30.6726C25.9687 30.6726 25.6103 30.3142 25.6103 29.8722V28.2713C25.6103 27.8292 25.9687 27.4709 26.4107 27.4709C26.8528 27.4709 27.2111 27.8292 27.2111 28.2713V29.8722ZM27.2111 25.0696C27.2111 25.5116 26.8528 25.87 26.4107 25.87C25.9687 25.87 25.6103 25.5116 25.6103 25.0696V23.4687C25.6103 23.0266 25.9687 22.6683 26.4107 22.6683C26.8528 22.6683 27.2111 23.0266 27.2111 23.4687V25.0696ZM30.4129 29.8722C30.4129 30.3142 30.0545 30.6726 29.6124 30.6726C29.1704 30.6726 28.812 30.3142 28.812 29.8722V28.2713C28.812 27.8292 29.1704 27.4709 29.6124 27.4709C30.0545 27.4709 30.4129 27.8292 30.4129 28.2713V29.8722ZM30.4129 25.0696C30.4129 25.5116 30.0545 25.87 29.6124 25.87C29.1704 25.87 28.812 25.5116 28.812 25.0696V23.4687C28.812 23.0266 29.1704 22.6683 29.6124 22.6683C30.0545 22.6683 30.4129 23.0266 30.4129 23.4687V25.0696ZM24.0094 20.267C24.0094 20.709 23.651 21.0674 23.209 21.0674C22.7669 21.0674 22.4086 20.709 22.4086 20.267V18.6661C22.4086 18.2241 22.7669 17.8657 23.209 17.8657C23.651 17.8657 24.0094 18.2241 24.0094 18.6661V20.267ZM27.2111 20.267C27.2111 20.709 26.8528 21.0674 26.4107 21.0674C25.9687 21.0674 25.6103 20.709 25.6103 20.267V18.6661C25.6103 18.2241 25.9687 17.8657 26.4107 17.8657C26.8528 17.8657 27.2111 18.2241 27.2111 18.6661V20.267ZM30.4129 20.267C30.4129 20.709 30.0545 21.0674 29.6124 21.0674C29.1704 21.0674 28.812 20.709 28.812 20.267V18.6661C28.812 18.2241 29.1704 17.8657 29.6124 17.8657C30.0545 17.8657 30.4129 18.2241 30.4129 18.6661V20.267ZM24.0094 15.4644C24.0094 15.9064 23.651 16.2648 23.209 16.2648C22.7669 16.2648 22.4086 15.9064 22.4086 15.4644V13.8635C22.4086 13.4215 22.7669 13.0631 23.209 13.0631C23.651 13.0631 24.0094 13.4215 24.0094 13.8635V15.4644ZM27.2111 15.4644C27.2111 15.9064 26.8528 16.2648 26.4107 16.2648C25.9687 16.2648 25.6103 15.9064 25.6103 15.4644V13.8635C25.6103 13.4215 25.9687 13.0631 26.4107 13.0631C26.8528 13.0631 27.2111 13.4215 27.2111 13.8635V15.4644ZM30.4129 15.4644C30.4129 15.9064 30.0545 16.2648 29.6124 16.2648C29.1704 16.2648 28.812 15.9064 28.812 15.4644V13.8635C28.812 13.4215 29.1704 13.0631 29.6124 13.0631C30.0545 13.0631 30.4129 13.4215 30.4129 13.8635V15.4644Z" fill="#FEFFFF"/>
<path d="M39.271 21.601H34.2016V38.25H39.271C39.713 38.25 40.0714 37.8916 40.0714 37.4496V22.4015C40.0714 21.9594 39.713 21.601 39.271 21.601ZM37.9369 32.0066C37.9369 32.4487 37.5786 32.8071 37.1365 32.8071C36.6945 32.8071 36.3361 32.4487 36.3361 32.0066V30.4058C36.3361 29.9637 36.6945 29.6053 37.1365 29.6053C37.5786 29.6053 37.9369 29.9637 37.9369 30.4058V32.0066ZM37.9369 27.204C37.9369 27.6461 37.5786 28.0045 37.1365 28.0045C36.6945 28.0045 36.3361 27.6461 36.3361 27.204V25.6032C36.3361 25.1611 36.6945 24.8028 37.1365 24.8028C37.5786 24.8028 37.9369 25.1611 37.9369 25.6032V27.204Z" fill="#FEFFFF"/>
<path d="M13.5504 21.601C13.1084 21.601 12.75 21.9594 12.75 22.4015V37.4496C12.75 37.8916 13.1084 38.25 13.5504 38.25H18.6198V21.601H13.5504ZM16.4854 32.0066C16.4854 32.4487 16.127 32.8071 15.6849 32.8071C15.2429 32.8071 14.8845 32.4487 14.8845 32.0066V30.4058C14.8845 29.9637 15.2429 29.6053 15.6849 29.6053C16.127 29.6053 16.4854 29.9637 16.4854 30.4058V32.0066ZM16.4854 27.204C16.4854 27.6461 16.127 28.0045 15.6849 28.0045C15.2429 28.0045 14.8845 27.6461 14.8845 27.204V25.6032C14.8845 25.1611 15.2429 24.8028 15.6849 24.8028C16.127 24.8028 16.4854 25.1611 16.4854 25.6032V27.204Z" fill="#FEFFFF"/>
</svg>
