<svg width="51" height="51" viewBox="0 0 51 51" fill="none" xmlns="http://www.w3.org/2000/svg">
<rect width="51" height="51" rx="4" fill="#050608"/>
<path d="M41.5229 35.4116C41.0168 35.0598 40.5713 34.6278 40.2041 34.1328C39.3249 33.1337 38.2059 31.8948 36.1277 31.8948C34.0496 31.8948 32.9706 33.0937 32.0514 34.1728C31.1322 35.2518 30.5328 35.8912 29.174 35.8912C27.8152 35.8912 27.1358 35.1318 26.2966 34.1728C25.4574 33.2136 24.3384 31.8948 22.2203 31.8948C20.1022 31.8948 19.0631 33.0937 18.1439 34.1728C17.2248 35.2518 16.6253 35.8912 15.2665 35.8912C13.9078 35.8912 13.2284 35.1318 12.3892 34.1728C11.8187 33.4193 11.0973 32.7932 10.271 32.3344C9.87374 32.1357 9.39068 32.2968 9.19203 32.6941C8.99337 33.0914 9.15439 33.5744 9.5517 33.7731C10.1792 34.1513 10.7341 34.6385 11.1902 35.2118C12.1093 36.2908 13.1884 37.4898 15.2665 37.4898C17.3447 37.4898 18.4237 36.2909 19.3429 35.2118C20.262 34.1328 20.8615 33.4933 22.2203 33.4933C23.579 33.4933 24.2584 34.2527 25.0977 35.2118C25.9369 36.1709 27.0559 37.4898 29.174 37.4898C31.2921 37.4898 32.3311 36.2909 33.2504 35.2118C34.1695 34.1328 34.769 33.4933 36.1277 33.4933C37.4865 33.4933 38.1659 34.2527 39.0051 35.2118C39.4709 35.8098 40.0231 36.3351 40.6436 36.7703C41.0188 37.0131 41.5199 36.9058 41.7626 36.5305C42.0055 36.1553 41.8982 35.6544 41.5229 35.4116Z" fill="#FEFFFF"/>
<path d="M41.5229 29.417C41.0168 29.0652 40.5713 28.6332 40.2041 28.1382C39.3249 27.1391 38.2059 25.9002 36.1277 25.9002C34.0496 25.9002 32.9706 27.0991 32.0514 28.1782C31.1322 29.2572 30.5328 29.8966 29.174 29.8966C27.8152 29.8966 27.1358 29.1373 26.2966 28.1782C25.4574 27.219 24.3384 25.9002 22.2203 25.9002C20.1022 25.9002 19.0631 27.0991 18.1439 28.1782C17.2248 29.2572 16.6253 29.8966 15.2665 29.8966C13.9078 29.8966 13.2284 29.1373 12.3892 28.1782C11.8187 27.4247 11.0973 26.7986 10.271 26.3398C9.87374 26.1412 9.39068 26.3022 9.19203 26.6995C8.99337 27.0968 9.15439 27.5799 9.5517 27.7785C10.1792 28.1567 10.7341 28.644 11.1902 29.2172C12.1093 30.2962 13.1884 31.4952 15.2665 31.4952C17.3447 31.4952 18.4237 30.2963 19.3429 29.2172C20.262 28.1382 20.8615 27.4988 22.2203 27.4988C23.579 27.4988 24.2584 28.2581 25.0977 29.2172C25.9369 30.1764 27.0559 31.4952 29.174 31.4952C31.2921 31.4952 32.3311 30.2963 33.2504 29.2172C34.1695 28.1382 34.769 27.4988 36.1277 27.4988C37.4865 27.4988 38.1659 28.2581 39.0051 29.2172C39.4709 29.8152 40.0231 30.3405 40.6436 30.7758C41.0188 31.0186 41.5199 30.9112 41.7626 30.536C42.0055 30.1608 41.8982 29.6598 41.5229 29.417Z" fill="#FEFFFF"/>
<path d="M41.5229 23.0226C41.0168 22.6708 40.5713 22.2388 40.2041 21.7437C39.3249 20.7447 38.2059 19.5058 36.1277 19.5058C34.0496 19.5058 32.9706 20.7047 32.0514 21.7837C31.1322 22.8628 30.5328 23.5022 29.174 23.5022C27.8152 23.5022 27.1358 22.7428 26.2966 21.7837C25.4574 20.8247 24.3384 19.5058 22.2203 19.5058C20.1022 19.5058 19.0631 20.7047 18.1439 21.7837C17.2248 22.8628 16.6253 23.5022 15.2665 23.5022C13.9078 23.5022 13.2284 22.7428 12.3892 21.7837C11.8187 21.0303 11.0973 20.4042 10.271 19.9454C9.87374 19.7467 9.39068 19.9077 9.19203 20.305C8.99337 20.7024 9.15439 21.1854 9.5517 21.3841C10.1792 21.7623 10.7341 22.2495 11.1902 22.8228C12.1093 23.9018 13.1884 25.1007 15.2665 25.1007C17.3447 25.1007 18.4237 23.9019 19.3429 22.8228C20.262 21.7437 20.8615 21.1043 22.2203 21.1043C23.579 21.1043 24.2584 21.8637 25.0977 22.8228C25.9369 23.7818 27.0559 25.1007 29.174 25.1007C31.2921 25.1007 32.3311 23.9019 33.2504 22.8228C34.1696 21.7437 34.769 21.1043 36.1277 21.1043C37.4865 21.1043 38.1659 21.8637 39.0051 22.8228C39.4709 23.4208 40.0231 23.9461 40.6436 24.3813C41.0188 24.6241 41.5199 24.5168 41.7626 24.1415C42.0055 23.7664 41.8982 23.2654 41.5229 23.0226Z" fill="#FEFFFF"/>
<path d="M9.55201 15.3897C10.1795 15.7678 10.7344 16.2551 11.1905 16.8283C12.1097 17.9074 13.1887 19.1063 15.2669 19.1063C17.345 19.1063 18.424 17.9074 19.3432 16.8283C20.2624 15.7493 20.8618 15.1099 22.2206 15.1099C23.5793 15.1099 24.2588 15.8693 25.098 16.8283C25.9372 17.7875 27.0562 19.1063 29.1743 19.1063C31.2924 19.1063 32.3314 17.9074 33.2507 16.8283C34.1698 15.7493 34.7693 15.1099 36.1281 15.1099C37.4868 15.1099 38.1662 15.8693 39.0054 16.8283C39.4712 17.4264 40.0234 17.9517 40.6439 18.387C41.0191 18.6298 41.5202 18.5224 41.763 18.1472C42.0057 17.772 41.8984 17.2709 41.5232 17.0281C41.017 16.6764 40.5716 16.2444 40.2043 15.7493C39.3251 14.7502 38.2062 13.5114 36.128 13.5114C34.0499 13.5114 32.9709 14.7102 32.0516 15.7893C31.1325 16.8684 30.533 17.5078 29.1742 17.5078C27.8155 17.5078 27.1361 16.7484 26.2969 15.7893C25.4576 14.8302 24.3386 13.5114 22.2205 13.5114C20.1024 13.5114 19.0634 14.7102 18.1442 15.7893C17.225 16.8684 16.6255 17.5078 15.2668 17.5078C13.908 17.5078 13.2288 16.7484 12.3895 15.7893C11.819 15.0358 11.0976 14.4097 10.2714 13.9509C9.87405 13.7522 9.39099 13.9132 9.19234 14.3106C8.99369 14.7079 9.15478 15.191 9.55201 15.3897Z" fill="#FEFFFF"/>
</svg>
