<svg width="51" height="51" viewBox="0 0 51 51" fill="none" xmlns="http://www.w3.org/2000/svg">
<rect width="51" height="51" rx="4" fill="#050608"/>
<path d="M25.2853 22.2971C25.5937 22.4113 25.8963 22.1317 25.7941 21.8342C25.0924 19.7919 22.5517 19.0301 20.1899 20.842C18.9475 21.7951 18.4807 21.9977 18.4689 22.0028C19.2879 22.7762 20.2236 25.3714 22.2656 25.6584C24.515 26.0435 26.5059 23.9534 24.877 22.997C23.8058 22.3681 22.5446 22.0027 21.1927 22.0027C22.61 21.701 24.0249 21.8304 25.2853 22.2971Z" fill="#FEFFFF"/>
<path d="M35.4711 20.8418C31.3941 17.7142 28.7941 22.6465 30.4102 22.1576C31.5581 21.8103 32.8129 21.7347 34.0717 22.0026C31.939 22.0026 29.9731 22.9257 28.6623 24.4282C28.77 22.067 28.9328 20.589 29.1216 19.4896C30.211 19.4543 31.663 18.6234 32.4603 17.1696C33.835 14.8461 33.1975 12.4638 32.9924 10.9606C31.9182 11.9484 27.2261 10.7909 25.366 13.8013C24.5444 15.1311 24.7832 16.7492 25.6475 17.9334C25.9211 18.3083 26.5754 18.1284 26.594 17.6735C26.6752 15.6944 27.7181 14.1992 29.6623 13.3711C28.7899 14.4386 28.2171 15.6339 27.9211 16.8692C27.4612 18.7936 26.9807 20.056 26.8043 26.1896C26.7864 26.8116 27.3199 27.3265 27.9788 27.3187C28.4557 27.3131 28.8643 27.0272 29.0477 26.6114C29.3267 25.9789 29.7807 25.3244 30.5196 24.7246C31.2217 25.4576 32.2901 25.8476 33.3956 25.6583C35.4289 25.3725 36.3778 22.7717 37.1922 22.0026C37.1803 21.9976 36.7134 21.7951 35.4711 20.8418Z" fill="#FEFFFF"/>
<path d="M41.4643 28.4842C40.1898 27.6676 38.8026 28.2495 38.1656 28.5969L30.1711 34.123L25.4902 34.124L24.32 33.0188H28.6188C29.9117 33.0188 31.3597 32.2234 31.3597 30.8078C31.3597 29.3049 29.9117 28.5969 28.6188 28.5969H27.0079C25.8111 28.5969 24.4126 28.6977 23.4266 28.1992C22.4897 27.7489 21.4109 27.4927 20.2593 27.4927C18.3256 27.4927 16.5949 28.2208 15.4089 29.369L9.10693 35.2282L16.1283 41.8596L18.4688 38.5439H29.5287C30.7082 38.5439 31.8468 38.1352 32.7285 37.3954L41.5444 29.9991C42.0345 29.5879 42.0068 28.8319 41.4643 28.4842Z" fill="#FEFFFF"/>
</svg>
