<svg width="46" height="37" viewBox="0 0 46 37" fill="none" xmlns="http://www.w3.org/2000/svg">
<path d="M42.8545 0.000163277H37.1879V4.25016C37.1879 5.07675 36.8595 5.86949 36.275 6.45398C35.6905 7.03847 34.8978 7.36683 34.0712 7.36683C33.2446 7.36683 32.4519 7.03847 31.8674 6.45398C31.2829 5.86949 30.9545 5.07675 30.9545 4.25016V0.000163277H14.4504V4.25016C14.4504 5.07676 14.122 5.86949 13.5375 6.45398C12.953 7.03847 12.1603 7.36683 11.3337 7.36683C10.5071 7.36683 9.71437 7.03847 9.12988 6.45398C8.54539 5.86949 8.21703 5.07676 8.21703 4.25016V0.000163277H2.55036C2.21323 -0.00367324 1.87875 0.0601361 1.56671 0.187818C1.25466 0.3155 0.971393 0.504461 0.73365 0.743525C0.495906 0.982589 0.308518 1.2669 0.182567 1.57965C0.0566155 1.89239 -0.00534007 2.22722 0.000364156 2.56433V34.2693C-0.00526428 34.6005 0.0544017 34.9295 0.175954 35.2376C0.297506 35.5457 0.478564 35.8269 0.708785 36.065C0.939006 36.3031 1.21388 36.4935 1.51771 36.6254C1.82154 36.7572 2.14837 36.828 2.47953 36.8335H42.8545C43.1857 36.828 43.5125 36.7572 43.8164 36.6254C44.1202 36.4935 44.3951 36.3031 44.6253 36.065C44.8555 35.8269 45.0366 35.5457 45.1581 35.2376C45.2797 34.9295 45.3393 34.6005 45.3337 34.2693V2.56433C45.3393 2.23317 45.2797 1.90414 45.1581 1.59604C45.0366 1.28794 44.8555 1.00681 44.6253 0.768692C44.3951 0.530577 44.1202 0.340148 43.8164 0.208283C43.5125 0.076417 43.1857 0.00569765 42.8545 0.000163277ZM33.9154 14.9885L20.2162 28.6877L12.7504 21.1652C12.4196 20.8014 12.2404 20.3249 12.2496 19.8333C12.2587 19.3417 12.4554 18.8722 12.7994 18.521C13.1434 18.1697 13.6087 17.9632 14.1 17.9439C14.5913 17.9245 15.0714 18.0937 15.442 18.4168L20.2304 23.2052L31.167 12.2685C31.3466 12.089 31.5597 11.9466 31.7943 11.8494C32.0288 11.7522 32.2802 11.7022 32.5341 11.7022C32.788 11.7022 33.0394 11.7522 33.274 11.8494C33.5085 11.9466 33.7217 12.089 33.9012 12.2685C34.0807 12.448 34.2231 12.6612 34.3203 12.8957C34.4175 13.1303 34.4675 13.3817 34.4675 13.6356C34.4675 13.8895 34.4175 14.1409 34.3203 14.3754C34.2231 14.61 34.0807 14.8231 33.9012 15.0027L33.9154 14.9885Z" fill="#FEFFFF"/>
</svg>
