<svg width="44" height="44" viewBox="0 0 44 44" fill="none" xmlns="http://www.w3.org/2000/svg">
<path fill-rule="evenodd" clip-rule="evenodd" d="M22 2.75H21.9523C21.8824 2.75029 21.8127 2.75458 21.7433 2.76283C21.6008 2.77806 21.4589 2.79885 21.318 2.82517C20.8616 2.91468 20.4138 3.04349 19.9796 3.21017C18.876 3.6245 17.3488 4.40367 15.4 5.86667C13.9516 6.952 11.5921 7.59 9.35363 7.92733C8.09699 8.11208 6.83024 8.21984 5.56046 8.25H3.66663V22C3.66663 25.036 4.90963 27.7567 6.59996 30.0612C8.29213 32.362 10.505 34.3475 12.65 35.9572C15.3189 37.9425 18.1811 39.6537 21.1933 41.0648L21.2373 41.0832L21.2446 41.0868L21.285 41.1052C21.518 41.2038 21.769 41.253 22.022 41.2499C22.2751 41.2467 22.5247 41.1912 22.7553 41.0868L22.7626 41.0832L22.8048 41.0648C23.0423 40.9564 23.2782 40.8445 23.5125 40.7293C23.9855 40.4983 24.6565 40.161 25.4558 39.721C27.5068 38.6069 29.4764 37.3492 31.35 35.9572C33.495 34.3475 35.7078 32.3638 37.4 30.0612C39.0903 27.7567 40.3333 25.036 40.3333 22V8.25H38.4395L38.225 8.2445C37.0269 8.20707 35.8321 8.10056 34.6463 7.9255C32.4078 7.59 30.0483 6.95567 28.6 5.86667C26.6511 4.40367 25.124 3.6245 24.0185 3.21017C23.5843 3.04349 23.1365 2.91468 22.6801 2.82517C22.4709 2.78853 22.2597 2.76404 22.0476 2.75183H22.022L22.011 2.75H22ZM20.1666 12.8333V20.1667H12.8333V23.8333H20.1666V31.1667H23.8333V23.8333H31.1666V20.1667H23.8333V12.8333H20.1666Z" fill="#FEFFFF"/>
</svg>
