<svg width="43" height="28" viewBox="0 0 43 28" fill="none" xmlns="http://www.w3.org/2000/svg">
<path fill-rule="evenodd" clip-rule="evenodd" d="M5.5 3.3V5.5H3.3C2.42479 5.5 1.58542 5.84768 0.966548 6.46655C0.347678 7.08542 0 7.92479 0 8.8V24.2C0 25.0752 0.347678 25.9146 0.966548 26.5335C1.58542 27.1523 2.42479 27.5 3.3 27.5H33.3667C33.8 27.5 34.2291 27.4146 34.6295 27.2488C35.0299 27.083 35.3937 26.8399 35.7001 26.5335C36.0066 26.227 36.2496 25.8632 36.4155 25.4629C36.5813 25.0625 36.6667 24.6334 36.6667 24.2V22H38.8667C40.6853 22 42.1667 20.5187 42.1667 18.7V3.3C42.1667 1.48133 40.6853 0 38.8667 0H8.8C6.98133 0 5.5 1.48133 5.5 3.3ZM9.16667 3.66667V5.5H33.3667C33.8 5.5 34.2291 5.58536 34.6295 5.7512C35.0299 5.91704 35.3937 6.16011 35.7001 6.46655C36.0066 6.77298 36.2496 7.13677 36.4155 7.53714C36.5813 7.93752 36.6667 8.36664 36.6667 8.8V18.3333H38.5V3.66667H9.16667ZM14.6667 16.5C14.6667 15.5275 15.053 14.5949 15.7406 13.9073C16.4282 13.2196 17.3609 12.8333 18.3333 12.8333C19.3058 12.8333 20.2384 13.2196 20.9261 13.9073C21.6137 14.5949 22 15.5275 22 16.5C22 17.4725 21.6137 18.4051 20.9261 19.0927C20.2384 19.7804 19.3058 20.1667 18.3333 20.1667C17.3609 20.1667 16.4282 19.7804 15.7406 19.0927C15.053 18.4051 14.6667 17.4725 14.6667 16.5Z" fill="#FEFFFF"/>
</svg>
